PathFileType	4	(X/Y/Z)	C:/Users/beibeiliu/ov580/test_trc/User3\sequence.25_training_dense_left.trc
DataRate	CameraRate	NumFrames	NumMarkers	Units	OrigDataRate	OrigDataStartFrame	OrigNumFrames
120	120	15	19	mm	120	26	75
Frame#	Time	ThumbCMC			ThumbMCP			ThumbIP			ThumbTip			IndexMCP			IndexPIP			IndexTip			MiddleMCP			MiddlePIP			MiddleTip			RingMCP			RingPIP			RingTip			PinkyMCP			PinkyPIP			PinkyTip			BackHand1			BackHand2			BackHand3	
		X0	Y0	Z0	X1	Y1	Z1	X2	Y2	Z2	X3	Y3	Z3	X4	Y4	Z4	X5	Y5	Z5	X6	Y6	Z6	X7	Y7	Z7	X8	Y8	Z8	X9	Y9	Z9	X10	Y10	Z10	X11	Y11	Z11	X12	Y12	Z12	X13	Y13	Z13	X14	Y14	Z14	X15	Y15	Z15	X16	Y16	Z16	X17	Y17	Z17	X18	Y18	Z18	
25	0.208333	-129.883	-11.741	22.6867	-108.018	-17.7505	-5.14509	-101.025	-24.5941	-36.277	-104.449	-35.5142	-57.9894	-154.662	11.8131	-52.6397	-146.026	1.50061	-81.3249	-133.854	-21.0622	-95.006	-172.964	8.19646	-57.1958	-163.902	-3.6066	-87.1126	-150.376	-36.9131	-97.5571	-189.702	-6.56993	-50.7141	-182.686	-20.7179	-78.9595	-167.62	-48.6237	-85.8036	-198.343	-21.0018	-38.1447	-195.606	-30.695	-62.554	-181.069	-49.6686	-74.5425	-194.16	-4.73788	8.40129	-190.942	-6.80878	33.5566	-164.082	7.32559	20.6588	
26	0.216667	-126.35	-9.39814	20.8266	-108.783	-16.5617	-6.88807	-104.561	-23.2489	-34.7868	-108.996	-34.1142	-55.8293	-150.089	13.8517	-48.5066	-149.459	4.03329	-78.7703	-137.709	-16.7968	-93.9371	-175.57	6.93081	-56.563	-164.702	-1.81508	-84.2865	-150.43	-32.0766	-97.8977	-185.782	-3.67978	-50.3805	-180.148	-17.79	-78.0737	-163.885	-45.1511	-85.6935	-201.477	-21.9774	-35.4118	-193.697	-29.1552	-61.6998	-182.796	-47.8692	-75.372	-194.213	-4.27636	4.17861	-194.352	-8.85256	37.6244	-162.241	8.51806	19.8646	
27	0.225	-130.358	-10.4886	21.8818	-108.301	-17.0936	-3.71011	-101.876	-22.0657	-36.9433	-103.919	-33.0965	-59.0067	-154.368	12.3599	-46.7605	-146.044	5.84971	-80.2253	-140.395	-16.8388	-94.9884	-172.248	9.41543	-56.6534	-168.673	-2.96781	-85.7211	-148.722	-34.7097	-99.1088	-189.746	-5.09127	-48.1759	-182.267	-18.9521	-77.7006	-169.82	-42.9507	-85.7961	-203.732	-21.8023	-35.2008	-197.111	-27.1925	-58.0732	-183.065	-47.7553	-73.3446	-190.096	-2.97301	7.08376	-193.368	-10.1372	37.1793	-164.186	8.56843	18.1227	
28	0.233333	-126.895	-7.31148	19.5618	-112.77	-16.7236	-3.61717	-104.314	-22.9364	-33.9124	-106.009	-32.791	-55.395	-154.346	14.6196	-49.9824	-150.071	6.9391	-78.342	-139.689	-18.5083	-98.0948	-171.962	10.4562	-52.6492	-166.241	-0.958375	-86.6943	-154.88	-29.3414	-98.5044	-187.817	-3.97572	-50.5519	-180.983	-15.529	-78.2639	-168.55	-39.8668	-87.1954	-200.322	-19.4336	-34.7743	-197.457	-29.628	-61.2785	-184.004	-48.0271	-75.8256	-194.861	-1.08529	4.16691	-191.619	-6.71138	38.574	-164.312	11.2135	21.0734	
29	0.241667	-127.036	-9.26962	21.594	-113.152	-17.3364	-6.93784	-98.9248	-24.1719	-33.8915	-102.153	-36.2563	-57.1508	-155.529	11.998	-49.3372	-148.681	5.43222	-80.3823	-136.569	-17.5416	-99.3005	-176.618	7.69409	-56.5095	-168.802	-3.22578	-86.6542	-152.644	-34.5704	-102.395	-187.706	-5.95318	-50.0183	-183.388	-17.9913	-77.2925	-173.428	-43.8833	-88.7084	-198.643	-21.3184	-35.3257	-197.305	-30.8012	-62.3427	-183.695	-48.825	-76.258	-189.471	-1.08727	7.50693	-189.463	-6.79763	34.7026	-162.019	11.2771	19.9465	
30	0.25	-129.622	-12.2757	17.1408	-108.72	-20.8698	-8.91143	-102.941	-31.6843	-32.3267	-104.406	-43.1435	-57.1499	-151.369	8.63716	-55.2662	-150.418	-1.22665	-79.9624	-140.072	-26.4987	-100.705	-175.785	1.50457	-54.7802	-170.321	-9.59806	-87.5811	-157.431	-37.9731	-102.227	-188.679	-9.92644	-51.841	-185.848	-25.2142	-78.4261	-169.111	-48.001	-89.322	-200.269	-26.2602	-37.2626	-198.874	-35.5483	-59.5626	-184.103	-55.8968	-78.1394	-194.582	-4.33581	3.84366	-191.22	-9.65568	35.2553	-163.537	7.96744	17.3791	
31	0.258333	-127.102	-14.6014	21.5347	-106.35	-24.9242	-5.86274	-102.249	-33.9898	-30.5218	-99.8457	-45.7223	-55.0435	-151.801	3.69593	-53.4165	-143.945	-4.83213	-79.3143	-133.782	-28.894	-96.4	-171.28	-0.141622	-57.8831	-164.612	-13.393	-86.1645	-149.64	-42.9685	-101.267	-187.989	-15.1631	-47.9016	-182.478	-25.0057	-73.96	-167.698	-52.2448	-86.3277	-200.119	-30.4144	-32.937	-196.921	-40.1712	-60.3353	-184.532	-56.3318	-72.9785	-191.464	-6.36767	6.27608	-187.578	-11.4673	37.2103	-157.482	6.1716	17.577	
32	0.266667	-127.269	-12.6668	21.3679	-109.121	-21.5905	-3.87617	-100.301	-30.8522	-31.8428	-106.366	-41.7822	-54.3375	-149.004	8.46156	-47.3934	-144.587	-3.33096	-78.3714	-134.829	-27.5443	-93.2397	-172.992	1.72308	-53.0738	-166.459	-8.44525	-84.371	-149.048	-39.0848	-97.0372	-185.751	-9.9206	-46.9163	-183.563	-22.1119	-73.6464	-168.32	-48.6989	-83.5102	-200.814	-28.5706	-34.4776	-193.17	-35.3271	-59.1239	-179.181	-56.3165	-72.6813	-192.69	-5.06286	6.2782	-188.078	-10.6267	37.9375	-163.247	4.26225	20.3425	
33	0.275	-128.819	-7.01149	21.047	-112.773	-15.0247	-8.20444	-107.68	-23.2719	-39.5548	-113.106	-33.7706	-57.17	-158.51	11.891	-48.9391	-152.709	2.43252	-79.2326	-139.557	-22.1097	-92.7206	-177.073	8.7859	-55.9806	-171.922	-2.0266	-84.4958	-155.353	-31.3603	-96.3701	-190.854	-4.64323	-49.671	-188.061	-16.9746	-74.3504	-171.26	-45.4004	-82.7816	-205.861	-22.8832	-39.0091	-197.38	-31.5696	-60.4935	-186.691	-51.8999	-74.0474	-194.247	-0.00859378	6.03058	-193.315	-6.4322	33.6421	-167.982	10.6093	19.1002	
34	0.283333	-137.802	-6.33622	17.951	-119.703	-13.742	-10.7728	-117.113	-20.2246	-39.4159	-125.563	-29.9116	-62.3565	-166.422	16.3106	-49.6828	-161.948	2.80848	-82.739	-152.323	-17.9165	-93.6383	-187.278	13.1765	-57.5895	-182.402	-0.934348	-86.9912	-164.511	-33.4221	-95.7864	-203.373	-2.65224	-48.6728	-195.405	-14.6532	-77.7072	-180.236	-43.8734	-82.4818	-214.36	-21.8401	-34.1909	-207.219	-30.1588	-62.6258	-191.369	-48.9548	-73.7068	-201.743	1.35839	6.16163	-199.642	-7.33447	37.215	-175.702	11.0013	17.9973	
35	0.291667	-140.836	-14.1678	16.0168	-128.273	-21.7007	-16.5733	-125.814	-29.9117	-41.9596	-133.718	-41.5602	-64.1982	-172.386	8.25673	-54.9041	-165.867	-6.98266	-86.3045	-158.918	-30.4164	-94.2762	-197.806	2.73147	-60.1325	-189.106	-11.0481	-88.5884	-173.268	-43.5818	-96.0872	-211.048	-11.3542	-50.5037	-204.787	-27.0071	-78.5956	-189.721	-52.7281	-80.6621	-222.354	-26.9252	-39.6983	-215.577	-40.2227	-62.8876	-203.534	-61.0751	-69.3529	-210.014	-3.5448	3.00115	-206.406	-9.96219	34.3666	-178.384	3.87444	16.42	
36	0.3	-139.857	-24.8424	15.1687	-127.645	-38.2593	-13.8103	-122.66	-50.6711	-37.6867	-124.825	-65.9686	-61.5585	-172.872	-16.9078	-58.1966	-168.885	-31.5313	-84.3459	-159.919	-60.1825	-91.5161	-193.327	-18.7019	-61.0572	-186.971	-34.7111	-88.7653	-176.847	-71.1005	-90.9008	-208.307	-31.6635	-50.1608	-204.371	-48.8551	-74.8618	-185.444	-80.5216	-72.8698	-218.448	-45.4408	-39.3346	-213.021	-61.237	-58.3027	-199.553	-87.2553	-60.2477	-209.429	-17.9711	2.6832	-205.386	-16.4081	30.0264	-177.381	-6.80282	11.5147	
37	0.308333	-136.543	-29.9654	16.0148	-118.826	-45.5372	-8.62129	-109.741	-61.0412	-27.5286	-107.803	-79.3751	-48.0919	-162.678	-38.5823	-60.8654	-153.809	-57.602	-82.3095	-138.815	-83.2432	-83.3442	-184.04	-43.5797	-58.9374	-175.103	-64.4297	-84.3471	-159.528	-96.8706	-79.9545	-197.996	-55.7832	-49.0588	-185.89	-78.4213	-71.1964	-169.93	-106.918	-59.4958	-209.372	-67.5993	-31.0653	-201.113	-88.6433	-49.6359	-181.409	-106.128	-48.9155	-198.811	-30.038	1.5024	-204.105	-27.0965	29.0915	-170.463	-13.7883	6.54016	
38	0.316667	-136.89	-20.0854	18.2004	-108.794	-29.8029	-1.47999	-93.8783	-44.7843	-22.5209	-91.1006	-65.501	-34.6657	-151.675	-42.4954	-53.9829	-133.196	-60.6661	-76.9367	-114.351	-83.4061	-73.952	-165.797	-54.4423	-57.1202	-150.214	-77.6657	-77.6963	-122.581	-103.072	-66.8076	-175.041	-71.3932	-46.6858	-158.897	-92.8503	-62.1692	-134.369	-109.754	-49.4133	-182.664	-86.7638	-27.8165	-168.474	-106.433	-39.0796	-139.893	-117.546	-29.8013	-193.268	-47.0796	2.13041	-195.845	-35.8953	27.3031	-172.391	-16.3273	6.12576	
39	0.325	-145.741	-6.55204	16.1825	-118.622	-6.73473	-1.08917	-94.4041	-15.6744	-24.0719	-80.9828	-37.166	-36.6214	-143.212	-43.045	-56.3687	-123.075	-50.5406	-73.2194	-90.466	-58.1543	-69.2759	-150.862	-63.7248	-55.882	-123.569	-73.5244	-71.831	-92.5886	-79.6694	-61.5292	-151.529	-75.52	-40.9545	-125.641	-89.5558	-53.7671	-94.8807	-91.9258	-39.951	-150.488	-93.5298	-21.8146	-126.996	-102.041	-29.9813	-99.9523	-95.5328	-19.8101	-182.366	-55.4917	2.26801	-189.36	-50.1731	29.5669	-177.311	-20.3559	6.68107	
